<svg version="1.2" xmlns="http://www.w3.org/2000/svg" viewBox="0 0 694 314" width="694" height="314"><defs><linearGradient id="P" gradientUnits="userSpaceOnUse"/><linearGradient id="g1" x2="1" href="#P" gradientTransform="matrix(-269.193,327.983,-328.013,-269.218,456.194,126.709)"><stop stop-color="#fa7e0a"/><stop offset=".5" stop-color="#6eb8cf"/><stop offset="1" stop-color="#5cc2f2"/></linearGradient><linearGradient id="g2" x2="1" href="#P" gradientTransform="matrix(-88.636,88.636,-88.411,-88.411,505.622,184.354)"><stop stop-color="#fa7e0a"/><stop offset=".5" stop-color="#6eb8cf"/><stop offset="1" stop-color="#5cc2f2"/></linearGradient><linearGradient id="g3" x2="1" href="#P" gradientTransform="matrix(-86.652,86.652,-118.296,-118.296,588.9,190.022)"><stop stop-color="#fa7e0a"/><stop offset=".5" stop-color="#6eb8cf"/><stop offset="1" stop-color="#5cc2f2"/></linearGradient><linearGradient id="g4" x2="1" href="#P" gradientTransform="matrix(-64.75,64.75,-64.748,-64.748,746.664,313.391)"><stop stop-color="#fa7e0a"/><stop offset=".5" stop-color="#6eb8cf"/><stop offset="1" stop-color="#5cc2f2"/></linearGradient><linearGradient id="g5" x2="1" href="#P" gradientTransform="matrix(-67.837,67.837,-67.716,-67.716,652.55,182.089)"><stop stop-color="#fa7e0a"/><stop offset=".5" stop-color="#6eb8cf"/><stop offset="1" stop-color="#5cc2f2"/></linearGradient><linearGradient id="g6" x2="1" href="#P" gradientTransform="matrix(-84.374,84.374,-81.095,-81.095,766.475,189.886)"><stop stop-color="#fa7e0a"/><stop offset=".5" stop-color="#6eb8cf"/><stop offset="1" stop-color="#5cc2f2"/></linearGradient></defs><style>.a{fill:url(#g1)}.b{fill:none;stroke:url(#g2);stroke-width:8}.c{fill:none;stroke:url(#g3);stroke-width:8}.d{fill:none;stroke:url(#g4);stroke-width:8}.e{fill:none;stroke:url(#g5);stroke-width:8}.f{fill:none;stroke:url(#g6);stroke-width:8}</style><path class="a" d="m308.3 104.4v66.2c0 24.7-20.1 44.8-44.8 44.8h-113.2c-11.2 0-21.2-5.4-27.4-13.8-4.3-5.7-6.8-12.8-6.8-20.5 0-18.2 14.3-33.2 32.4-34.1 0.9-18.1 15.9-32.4 34.1-32.4 18.9 0 34.3 15.3 34.3 34.2v41.9h-15.2v-41.9c0-10.5-8.5-19.1-19.1-19.1-10.5 0-19 8.6-19 19.1q0 2.4 0.5 4.7c0.7 2.5-0.1 5.3-2 7.2-1.8 1.8-4.6 2.6-7.1 1.9q-2.3-0.5-4.7-0.5c-10.5 0-19.1 8.5-19.1 19 0 10.6 8.6 19.1 19.1 19.1h113.2c16.4 0 29.7-13.3 29.7-29.6v-58.6h-83.9c-4.2 0-7.6-3.4-7.6-7.6v-54.3c0-16.3-13.3-29.6-29.6-29.6h-58.6v83.9c0 4.2-3.4 7.6-7.6 7.6h-54.3c-16.3 0-29.6 13.2-29.6 29.6v58.6h83.9c2.1 0 4 0.9 5.3 2.2 1.4 1.4 2.3 3.3 2.3 5.4v54.2c0 16.4 13.2 29.7 29.6 29.7h58.6v-66.7h15.2v74.3c0 4.1-3.4 7.5-7.6 7.5h-66.2c-24.7 0-44.8-20.1-44.8-44.8v-46.6h-83.9c-4.1 0-7.5-3.4-7.5-7.6v-66.2c0-24.7 20-44.8 44.7-44.8h46.7v-83.9c0-4.2 3.4-7.6 7.6-7.6h66.2c24.7 0 44.8 20.1 44.8 44.8v46.7h83.8c4.2 0 7.6 3.4 7.6 7.6z"/><path class="b" d="m391 213.2q-9.1 0-16.9-3.3-7.8-3.3-12.4-10.7-4.5-7.5-4.5-19.7v-41q0-12.2 4.5-19.6 4.6-7.4 12.4-10.7 7.8-3.3 17-3.3 10.3 0 18.2 3.4 7.9 3.5 12.3 9.6 4.5 6.2 4.5 14.9 0 5.7-2.3 7.6-2.4 1.8-7.2 1.8-4 0-6.7-1.4-2.7-1.4-2.9-4.6 0-1.8-0.5-4.2-0.5-2.4-2-4.8-1.4-2.3-4.5-4-3-1.6-8.3-1.6-7.5 0-11.5 4.2-4 4.2-4 12.7v41q0 8.7 4.1 12.8 4.1 4.1 11.7 4.1 5 0 8-1.6 2.9-1.6 4.3-4 1.4-2.4 1.9-5.1 0.5-2.6 0.8-5 0.3-3.4 3-4.7 2.6-1.3 6.4-1.3 5 0 7.4 1.9 2.3 1.9 2.3 7.5 0 8.8-4.5 15.4-4.4 6.6-12.4 10.2-7.9 3.5-18.2 3.5z"/><path class="c" d="m447.3 212.3q-4.1 0-6.8-1.9-2.6-1.9-2.6-4.1v-98.6q0-2.7 2.6-4.3 2.7-1.6 6.8-1.6 4 0 6.8 1.6 2.7 1.6 2.8 4.3v45.1q2.2-4.3 6.9-7.7 4.7-3.5 11.6-3.5 6.9 0 12.6 4.1 5.7 4 9.2 10.8 3.5 6.7 3.5 15v34.8q0 2.9-3 4.5-2.9 1.5-6.6 1.5-3.2 0-6.3-1.5-3.1-1.6-3.1-4.5v-34.8q0-3.4-1.8-6.4-1.7-2.9-4.6-4.9-2.9-2-6.4-2-2.9 0-5.7 1.6-2.8 1.7-4.6 4.6-1.7 2.9-1.7 7.1v34.8q-0.1 2.2-2.8 4.1-2.8 1.9-6.8 1.9z"/><path class="d" d="m525.5 212.3q-4.1 0-6.8-1.9-2.6-1.9-2.6-4.1v-98.6q0-2.7 2.6-4.3 2.7-1.6 6.8-1.6 4 0 6.8 1.6 2.7 1.6 2.7 4.3v98.6q0 2.2-2.7 4.1-2.8 1.9-6.8 1.9z"/><path fill-rule="evenodd" class="e" d="m580.2 213.6q-8.6 0-15.8-4.2-7.2-4.1-11.6-11-4.4-7-4.4-14.9v-12q0-8 4.3-14.8 4.2-6.9 11.5-11 7.3-4.1 16-4.1 8.6 0 15.9 4.1 7.3 4 11.6 10.8 4.4 6.7 4.4 15v12q0 7.8-4.4 14.7-4.4 6.9-11.7 11.2-7.3 4.2-15.8 4.2zm0-16.6q3.5 0 6.4-1.9 3-1.9 4.7-5.1 1.8-3.1 1.8-6.5v-12q0-3.4-1.8-6.4-1.7-2.9-4.6-4.9-2.9-2-6.5-2-3.6 0-6.5 1.9-2.9 1.9-4.6 5-1.7 3-1.7 6.4v12q0 3.4 1.7 6.5 1.7 3.2 4.6 5.1 2.9 1.9 6.5 1.9z"/><path fill-rule="evenodd" class="f" d="m657.1 213.6q-10.5 0-18.5-3.7-8-3.8-12.6-10.6-4.5-6.8-4.5-15.8v-12.5q0-7.9 4.3-14.6 4.4-6.7 11.6-10.7 7.3-4.1 16.3-4.1 8.2 0 15 3.5 6.9 3.6 11.1 9.7 4.3 6.2 4.3 14.4 0 6.4-2.1 9.1-2 2.7-5.2 3.4-3.1 0.6-6.5 0.6h-29.9v2.2q0 6.4 4.8 10.2 4.8 3.9 12.4 3.9 4.9 0 8.1-1.4 3.3-1.5 5.6-2.8 2.4-1.3 4.4-1.3 2.2 0 3.8 1.4 1.7 1.5 2.5 3.5 0.9 2 0.9 3.4 0 2.5-3.1 5.4-3.2 2.9-9 4.9-5.8 1.9-13.7 1.9zm-11.2-84.6q-2.4 0-4.1-2.5-1.8-2.4-1.8-4.7 0-3.3 2.5-4.6l19.4-9.4q1-0.3 1.9-0.3 2.5 0 4.2 2.4 1.7 2.3 1.7 4.8 0 3.1-2.7 4.4l-19.1 9.3q-0.6 0.1-1 0.3-0.4 0.3-1 0.3zm-5.5 42.2h21.5q2.5 0 3.5-0.9 0.9-0.8 0.9-3.1 0-3.4-1.8-6-1.7-2.7-4.7-4.2-2.9-1.4-6.4-1.4-3.4 0-6.3 1.4-3 1.4-4.8 3.9-1.9 2.6-1.9 6.1z"/></svg>